<svg version="1.1" xmlns="http://www.w3.org/2000/svg" x="0" y="0" viewBox="0 0 128 128" xml:space="preserve"><style type="text/css">
	.st0{fill:#27BDBE;}
	.st1{fill:#FFFFFF;}
</style><path class="st0" d="M64 75L64 75c-16 0-29-13-29-29V29C35 13 48 0 64 0h0c16 0 29 13 29 29v17C93 62 80 75 64 75z"/><path class="st1" d="M36 76h28c-4.6 0.1-11-0.3-11 7 0 7.9 3.3 5.9 6 10 -1.5 26.5-10 35-10 35h-4H14c-7.7 0-14-6.3-14-14v-2C0 92.1 16.1 76 36 76z"/><path class="st1" d="M128 112v2c0 7.7-6.3 14-14 14H83h-4c0 0-8.5-8.5-10-35 2.8-4.1 6-2.1 6-10 0-7.3-6.4-6.9-11-7h28C111.9 76 128 92.1 128 112z"/></svg>