<?xml version="1.0" encoding="utf-8"?>
<svg version="1.1" id="Layer_1" xmlns="http://www.w3.org/2000/svg" xmlns:xlink="http://www.w3.org/1999/xlink" x="0px" y="0px"
	 viewBox="10.3 126 503.7 272" style="enable-background:new 10.3 126 503.7 272;" xml:space="preserve">
<path class="logoshape1" d="M20.4,126h113c4.3,0,8.1,2.7,9.5,6.8l85.5,252c2.2,6.5-2.6,13.2-9.5,13.2H106c-4.3,0-8.1-2.7-9.5-6.8l-85.7-252
	C8.7,132.7,13.5,126,20.4,126z"/>
<path class="logoshape2" d="M504,126H390c-4.3,0-8,2.7-9.4,6.7l-19.5,55.9l62.4,168.6c1.6,4.4,7.8,4.4,9.4,0l80.5-217.7
	C515.8,132.9,511,126,504,126z"/>
<path class="logoshape3" d="M420.9,384.6l-92.2-252c-1.4-3.9-5.2-6.6-9.4-6.6H198c-4.3,0-8.1,2.7-9.5,6.7l-16.9,48.9l60,174.7
	c1.5,4.4,7.8,4.5,9.4,0.1l12.8-34.2c1.6-4.3,7.7-4.3,9.4,0l26.1,69.3c1.5,3.9,5.2,6.5,9.4,6.5h112.8
	C418.5,398,423.3,391.1,420.9,384.6z"/>
</svg>
